<svg width="25" height="27" viewBox="0 0 25 27" fill="none" xmlns="http://www.w3.org/2000/svg">
<path d="M18.9131 1.48718V5.48718M6.91309 1.48718V5.48718M1.91309 9.48718H23.9131M8.41309 14.4872H11.9131L9.91309 16.9872C10.2422 16.9866 10.5664 17.0673 10.8569 17.2221C11.1474 17.3768 11.3952 17.6009 11.5784 17.8744C11.7615 18.1479 11.8743 18.4624 11.9068 18.7899C11.9392 19.1175 11.8903 19.448 11.7645 19.7521C11.6386 20.0562 11.4396 20.3246 11.1851 20.5333C10.9307 20.7421 10.6286 20.8849 10.3057 20.9489C9.98289 21.013 9.64922 20.9964 9.33432 20.9006C9.01943 20.8048 8.73305 20.6327 8.50059 20.3997M14.9131 15.9872L16.9131 14.4872V20.9872M2.91309 3.48718H22.9131C23.4654 3.48718 23.9131 3.9349 23.9131 4.48718V24.4872C23.9131 25.0395 23.4654 25.4872 22.9131 25.4872H2.91309C2.3608 25.4872 1.91309 25.0395 1.91309 24.4872V4.48718C1.91309 3.9349 2.3608 3.48718 2.91309 3.48718Z" stroke="#006FA0" stroke-width="2" stroke-linecap="round" stroke-linejoin="round"/>
</svg>
