<svg width="15" height="21" viewBox="0 0 15 21" fill="none" xmlns="http://www.w3.org/2000/svg">
<path d="M7.17932 6.00265C8.38744 6.00265 9.36682 4.9947 9.36682 3.75133C9.36682 2.50795 8.38744 1.5 7.17932 1.5C5.9712 1.5 4.99182 2.50795 4.99182 3.75133C4.99182 4.9947 5.9712 6.00265 7.17932 6.00265Z" stroke="black" stroke-width="1.5" stroke-linecap="round" stroke-linejoin="round"/>
<path d="M9.2107 11.044L11.9294 13.2149C12.1092 13.3689 12.3383 13.4482 12.572 13.4372C12.8056 13.4262 13.0268 13.3258 13.1921 13.1556C13.3575 12.9854 13.4551 12.7578 13.4657 12.5174C13.4764 12.2769 13.3994 12.0411 13.2498 11.8561L10.156 7.76351C10.0118 7.61362 9.84029 7.49454 9.65125 7.41313C9.4622 7.33172 9.25938 7.28957 9.05445 7.28912H5.30445C4.88852 7.29142 4.49011 7.46178 4.19507 7.76351L1.10132 11.8561C0.940235 12.0401 0.854084 12.2809 0.860707 12.5285C0.86733 12.776 0.966219 13.0115 1.1369 13.1862C1.30758 13.3608 1.53697 13.4612 1.77758 13.4665C2.01819 13.4719 2.25159 13.3818 2.42945 13.2149L5.1482 11.044L2.97632 18.0874C2.924 18.2025 2.89421 18.3271 2.88867 18.454C2.88312 18.581 2.90192 18.7078 2.944 18.8273C2.98608 18.9467 3.0506 19.0565 3.1339 19.1503C3.21719 19.2441 3.31762 19.3201 3.42945 19.3739C3.54127 19.4278 3.66231 19.4584 3.78565 19.4641C3.90899 19.4698 4.03222 19.4505 4.14829 19.4072C4.26436 19.3639 4.37101 19.2975 4.46215 19.2117C4.55328 19.126 4.62712 19.0227 4.67945 18.9076L7.17945 14.8552L9.67945 18.9076C9.72828 19.0277 9.80023 19.1364 9.89097 19.2271C9.98171 19.3179 10.0893 19.3888 10.2074 19.4356C10.3255 19.4823 10.4515 19.5041 10.578 19.4994C10.7044 19.4947 10.8286 19.4637 10.9431 19.4083C11.0576 19.353 11.16 19.2743 11.2442 19.1771C11.3284 19.0799 11.3925 18.9661 11.4329 18.8427C11.4732 18.7193 11.4889 18.5888 11.4789 18.459C11.4689 18.3292 11.4335 18.2028 11.3748 18.0874L9.2107 11.044Z" stroke="black" stroke-width="1.5" stroke-linecap="round" stroke-linejoin="round"/>
</svg>
