<svg width="28" height="23" viewBox="0 0 28 23" fill="none" xmlns="http://www.w3.org/2000/svg">
<path d="M24.985 20.6833C25.463 19.2283 27.7093 4.7211 27.9851 1.86275C28.0694 0.996444 27.792 0.421435 27.2527 0.165033C26.5984 -0.145987 25.6285 0.00876608 24.5038 0.410817C22.9608 0.961551 3.24225 9.25138 2.10225 9.73233C1.02355 10.1875 0 10.6821 0 11.4012C0 11.9064 0.303387 12.1901 1.13693 12.4845C2.00419 12.7909 4.18919 13.4464 5.47935 13.7983C6.722 14.1382 8.13627 13.8439 8.92845 13.3553C9.76813 12.838 19.4673 6.41275 20.1629 5.84988C20.8586 5.28701 21.4133 6.00767 20.8448 6.57205C20.2763 7.13493 13.6202 13.5328 12.7407 14.4189C11.6743 15.4945 12.4312 16.6082 13.1468 17.0557C13.9634 17.5655 19.835 21.4646 20.7207 22.0912C21.6063 22.7163 22.5012 23 23.324 23C24.1453 22.9985 24.5758 21.9258 24.985 20.6833Z" fill="white"/>
</svg>
