<svg width="90" height="90" viewBox="0 0 90 90" fill="none" xmlns="http://www.w3.org/2000/svg">
<rect width="90" height="90" rx="4" fill="black" fill-opacity="0.6"/>
<path d="M61.7237 62.8702C62.5603 60.2766 66.4913 34.4159 66.9739 29.3206C67.1214 27.7763 66.6361 26.7513 65.6922 26.2942C64.5472 25.7398 62.8499 26.0156 60.8817 26.7323C58.1815 27.7141 23.6739 42.4916 21.6789 43.3489C19.7912 44.1603 18 45.042 18 46.3239C18 47.2245 18.5309 47.7303 19.9896 48.2549C21.5073 48.8013 25.3311 49.9696 27.5889 50.5971C29.7635 51.2029 32.2385 50.6782 33.6248 49.8073C35.0942 48.8851 52.0678 37.4314 53.2852 36.428C54.5025 35.4247 55.4732 36.7093 54.4784 37.7154C53.4836 38.7188 41.8354 50.1238 40.2962 51.7032C38.4299 53.6207 39.7546 55.6058 41.0068 56.4037C42.436 57.3124 52.7113 64.263 54.2612 65.38C55.8111 66.4943 57.377 67 58.817 67C60.2542 66.9973 61.0077 65.0852 61.7237 62.8702Z" fill="white"/>
</svg>
