<svg width="90" height="90" viewBox="0 0 90 90" fill="none" xmlns="http://www.w3.org/2000/svg">
<rect width="90" height="90" rx="4" fill="black" fill-opacity="0.6"/>
<path d="M61.9805 46.6294C61.1236 45.6144 61.3688 45.1629 61.9805 44.2556C61.9915 44.2452 69.0651 35.0771 69.7938 31.9679L69.7982 31.9658C70.1604 30.8327 69.7983 30 68.047 30H62.2521C60.7769 30 60.0967 30.7146 59.7323 31.5142C59.7323 31.5142 56.7819 38.1386 52.608 42.4327C51.2609 43.6735 50.6381 44.0712 49.9027 44.0712C49.5405 44.0712 48.9774 43.6735 48.9774 42.5404V31.9658C48.9774 30.6069 48.5644 30 47.3431 30H38.2312C37.3059 30 36.756 30.6339 36.756 31.2242C36.756 32.5126 38.843 32.8089 39.0594 36.4339V44.2991C39.0594 46.0225 38.7259 46.3394 37.9861 46.3394C36.0162 46.3394 31.235 39.6881 28.4016 32.0756C27.8296 30.5986 27.2709 30.0021 25.7846 30.0021H19.9876C18.3335 30.0021 18 30.7167 18 31.5163C18 32.929 19.9699 39.9532 27.1605 49.2332C31.9527 55.5676 38.7016 59 44.841 59C48.5313 59 48.9818 58.2377 48.9818 56.9265C48.9818 50.8738 48.6483 50.3021 50.4967 50.3021C51.3536 50.3021 52.8288 50.6998 56.2739 53.7551C60.2115 57.3781 60.8586 59 63.0626 59H68.8575C70.5094 59 71.3463 58.2377 70.8649 56.7339C69.7629 53.5708 62.3162 47.0644 61.9805 46.6294Z" fill="white"/>
</svg>
