<svg width="48" height="41" viewBox="0 0 48 41" fill="none" xmlns="http://www.w3.org/2000/svg">
<path opacity="0.5" d="M13.6201 30.8964C13.215 29.8218 12.9364 28.772 12.7971 27.6851C12.6578 26.5982 12.6452 25.4866 12.7465 24.2886C12.8731 22.8435 13.2909 21.2873 13.9747 19.8175C14.6204 18.4342 15.4941 17.125 16.583 16.0381C19.1787 13.4567 22.4074 12.3822 25.4463 12.481C26.8391 12.5304 28.1939 12.8145 29.4347 13.3085C30.6756 13.8149 31.8025 14.5189 32.7394 15.4205C34.4741 17.0756 35.5504 19.3482 35.4617 22.0407C35.4617 22.2383 35.4364 22.4359 35.4238 22.6212C35.3984 22.8065 35.3731 23.0041 35.3351 23.2017L35.2592 23.6463L29.7006 23.3005L29.8906 22.6829C30.1438 21.9048 30.0805 20.855 29.5107 19.9163C29.0549 19.1753 28.2572 18.5083 27.0037 18.1131C25.7881 17.7302 24.5599 17.7302 23.395 18.0513C22.2175 18.3848 21.1286 19.0518 20.2296 20.0028C19.128 21.1885 18.457 22.72 18.2164 24.3256C17.9505 26.0054 18.1531 27.7592 18.8115 29.2784C19.2293 30.2418 19.7738 31.1064 20.4069 31.8598C21.9896 33.7248 24.2054 34.9352 26.6238 35.4416C29.0549 35.948 31.6885 35.738 34.1449 34.7376C35.2971 34.2682 36.4114 33.6136 37.4243 32.7985C39.0704 31.4645 40.3365 29.7477 41.1975 27.8457C42.0965 25.8448 42.5523 23.6463 42.5397 21.4726C42.5397 20.4351 42.4764 20.0769 42.3877 19.4593C42.3624 19.2864 42.3371 19.0888 42.2738 18.6936C42.2485 18.5207 42.1978 18.3354 42.1598 18.1378L42.0965 17.8537C41.5647 15.4823 40.2352 12.9503 38.146 10.7889C36.3227 8.8992 33.917 7.29356 30.9288 6.30548C29.3841 5.79909 27.7507 5.50267 26.1427 5.40386C24.4333 5.30505 22.7746 5.41621 21.2679 5.71263L20.3562 5.93495C19.6092 6.10787 18.8748 6.34253 18.1657 6.61426C17.444 6.89833 16.7349 7.21946 16.0512 7.57764C13.5315 8.91155 11.3157 10.8136 9.56836 13.1603C7.87168 15.4329 6.61815 18.1378 5.95974 21.1391C5.57989 22.8559 5.41529 24.6221 5.45328 26.3512C5.49126 28.0927 5.7445 29.8095 6.20033 31.4522C6.30162 31.8104 6.50421 32.4526 6.73212 33.1319C6.90939 33.6383 7.11197 34.1818 7.3019 34.6264L7.50449 35.0834L2.5284 37.1831L2.31315 36.7261C2.12323 36.2938 1.97128 35.9233 1.81934 35.528L1.60409 34.9722C0.996322 33.4407 0.553157 31.6004 0.287259 29.7107C0.00869908 27.7345 -0.067264 25.709 0.059354 23.9428C0.17331 22.4236 0.401218 20.8797 0.781072 19.3482C1.1356 17.8908 1.60409 16.458 2.21186 15.0994C2.38912 14.6918 2.57904 14.2966 2.76897 13.9014C2.9589 13.5185 3.17415 13.1233 3.3894 12.7404C3.66796 12.3328 3.89587 11.8387 4.1871 11.4312C4.85817 10.3937 5.59255 9.40559 6.39025 8.47926C7.18794 7.56528 8.0616 6.70071 8.99858 5.89789C9.70764 5.29269 10.4294 4.7369 11.1638 4.23051C11.9108 3.72411 12.6832 3.25478 13.4935 2.82249C13.8987 2.60017 14.3672 2.3902 14.823 2.18024C15.3421 1.94557 15.8486 1.7356 16.3171 1.56268C16.8236 1.37742 17.444 1.1551 18.0771 0.969835C18.6722 0.78457 19.2673 0.636357 19.7611 0.525197C20.9766 0.265826 22.0402 0.129965 23.1291 0.055859C24.1927 -0.00589622 25.2563 -0.00589735 26.4972 0.00645368L27.5734 0.105262C28.8016 0.179368 30.0931 0.438741 31.3466 0.78457C32.8154 1.19215 34.2589 1.74795 35.563 2.32845C37.5636 3.23007 39.4249 4.50223 41.0329 5.972C42.7423 7.52823 44.1857 9.33148 45.224 11.1471C45.4899 11.6164 45.7305 12.0487 45.9457 12.4933C46.1736 12.9503 46.3762 13.4073 46.5661 13.9137L47.06 15.3464C47.1866 15.6923 47.2879 16.0134 47.3638 16.3222C47.4398 16.6309 47.5158 16.9644 47.5791 17.3226C47.6171 17.5573 47.6677 17.7796 47.7057 17.9896C47.807 18.533 47.9083 19.027 47.9463 19.8299C48.0349 21.3614 48.0222 22.7571 47.845 24.1404C47.6677 25.536 47.3512 26.9194 46.8067 28.4385C46.5915 29.0314 46.3382 29.6489 46.0597 30.2541C45.7811 30.847 45.4646 31.4398 45.1354 31.9833C44.4263 33.169 43.5147 34.3423 42.5017 35.3922C41.5141 36.4173 40.3998 37.3436 39.2603 38.06C38.7411 38.3811 37.9435 38.8505 37.399 39.1098C37.1078 39.2704 36.6646 39.468 36.2214 39.6533C35.7783 39.8385 35.3098 39.9991 34.9933 40.0979C33.917 40.419 33.094 40.6414 32.2456 40.7772C31.3973 40.9254 30.5363 40.9872 29.3588 40.9995C27.6621 41.0119 25.8641 40.7772 24.1548 40.2832C22.5467 39.8262 21.0146 39.1345 19.6851 38.2082C19.6218 38.1588 19.5332 38.1217 19.4572 38.0723C19.3306 37.9982 19.1913 37.9241 19.0647 37.8253C18.5329 37.4177 18.0898 37.0596 17.6719 36.689C17.2541 36.3185 16.8362 35.9109 16.3804 35.3798C16.0006 34.9475 15.5701 34.3917 15.1902 33.8236C14.823 33.2925 14.4811 32.7243 14.2406 32.2303C14.114 31.9833 14.0127 31.761 13.924 31.5386C13.7974 31.3534 13.7088 31.1311 13.6201 30.8964Z" fill="white"/>
</svg>
