<svg width="1400" height="81" viewBox="0 0 1400 81" fill="none" xmlns="http://www.w3.org/2000/svg">
<path d="M-452 57.2044L-452 2.88826e-06L1468 -7.4589e-05L1468 34.4487C905.029 -19.5281 110.286 106.812 -452 57.2044Z" fill="#4F7193"/>
<path d="M-452 48.9139L-452 9.06222e-07L1468 -7.65711e-05L1468 29.4561C905.029 -16.698 110.286 91.3322 -452 48.9139Z" fill="#2D5983"/>
<path d="M1468 67.153L1468 3.3181e-05L-452 -9.15527e-05L-452 40.4398C110.971 -22.9243 905.714 125.388 1468 67.153Z" fill="#8BA6C0"/>
<path d="M1468 57.2044L1468 3.62447e-05L-452 -8.8489e-05L-452 34.4487C110.971 -19.5281 905.714 106.812 1468 57.2044Z" fill="#D9DCE1"/>
</svg>
