<svg width="31" height="19" viewBox="0 0 31 19" fill="none" xmlns="http://www.w3.org/2000/svg">
<path d="M25.7244 10.8217C25.2232 10.1917 25.3666 9.91143 25.7244 9.34829C25.7309 9.34186 29.8682 3.65129 30.2945 1.72143L30.2971 1.72014C30.5089 1.01686 30.2971 0.5 29.2728 0.5H25.8833C25.0204 0.5 24.6226 0.943571 24.4095 1.43986C24.4095 1.43986 22.6837 5.55157 20.2424 8.21686C19.4545 8.987 19.0902 9.23386 18.6601 9.23386C18.4482 9.23386 18.1188 8.987 18.1188 8.28371V1.72014C18.1188 0.876714 17.8773 0.5 17.163 0.5H11.8334C11.2921 0.5 10.9705 0.893429 10.9705 1.25986C10.9705 2.05957 12.1912 2.24343 12.3178 4.49343V9.37529C12.3178 10.445 12.1227 10.6417 11.69 10.6417C10.5378 10.6417 7.74123 6.51329 6.08396 1.78829C5.74941 0.871571 5.4226 0.501286 4.55328 0.501286H1.16254C0.195048 0.501286 0 0.944857 0 1.44114C0 2.318 1.15221 6.67786 5.35802 12.4379C8.16103 16.3696 12.1085 18.5 15.6995 18.5C17.8579 18.5 18.1214 18.0269 18.1214 17.213C18.1214 13.4561 17.9264 13.1013 19.0075 13.1013C19.5087 13.1013 20.3716 13.3481 22.3866 15.2446C24.6898 17.4933 25.0682 18.5 26.3574 18.5H29.7468C30.713 18.5 31.2026 18.0269 30.921 17.0934C30.2764 15.1301 25.9208 11.0917 25.7244 10.8217Z" fill="white"/>
</svg>
