<svg width="257" height="52" viewBox="0 0 257 52" fill="none" xmlns="http://www.w3.org/2000/svg">
<g clip-path="url(#clip0_647_1125)">
<path d="M130.089 7.40769L124.96 18.7756H135.226L130.089 7.40769ZM123.547 22.2529L120.383 28.9071H116.1C120.427 19.66 124.753 10.4042 129.089 1.15706H131.002L143.69 27.9798L144.147 28.9157L139.786 28.8985L136.622 22.2444H123.547V22.2529ZM16.8394 1.68081V4.8834H4.28964V28.9672H0.376465V1.3202H16.8394V1.68081ZM20.9077 1.3202H36.9828V4.83188H24.502V12.9371H36.5518V16.4488H24.502V25.2838H37.4051V28.95H20.5543V1.3202H20.9077ZM93.5687 1.68081V4.8834H81.0189V28.9672H77.1058V1.3202H93.5687V1.68081ZM101.154 4.85764V16.775H108.446C110.161 16.775 111.669 16.1483 112.738 15.0836C113.79 14.0361 114.427 12.5507 114.427 10.7992C114.427 9.07338 113.807 7.57941 112.747 6.53192C111.695 5.48442 110.195 4.86622 108.446 4.86622C106.799 4.84047 105.11 4.84905 103.403 4.85764H101.154ZM101.197 20.364V28.9415H97.2836V1.31161H97.637C99.2402 1.31161 100.223 1.31161 101.214 1.30302C103.636 1.29444 106.075 1.28585 108.454 1.31161C111.385 1.31161 113.79 2.31618 115.488 3.97328C117.272 5.70766 118.272 8.14609 118.272 10.8764C118.272 13.5725 117.263 15.9851 115.479 17.7109C113.772 19.3594 111.35 20.3726 108.454 20.3726H101.197V20.364ZM196.458 15.573L196.483 9.42541L179.59 28.8985H178.03V1.26868H181.986C181.986 8.00871 181.986 14.225 181.684 20.9221L198.733 1.23433H200.371V28.8642L196.458 28.9071V15.573ZM209.421 13.3922H214.481L222.229 1.27727H226.341L217.635 15.0578L226.617 28.9157H222.341L214.438 16.8008H209.421V28.9157H205.663V1.26868H209.421V13.3922ZM156.86 22.3646V7.69103C156.292 7.69103 155.904 7.69103 155.861 7.69103C153.43 7.87992 151.154 8.5067 149.594 9.88905C148.327 11.0224 147.534 12.6709 147.534 15.0407C147.534 17.4705 148.379 19.1448 149.698 20.2696C151.042 21.4115 152.896 22.0211 154.887 22.3045C155.016 22.3302 155.826 22.3474 156.86 22.3646ZM156.86 28.2889V25.8934C153.163 25.7818 149.646 24.906 147.155 22.9398C144.966 21.2054 143.578 18.6468 143.578 15.0493C143.578 11.4517 144.957 8.89307 147.138 7.1587C149.62 5.18391 153.145 4.29955 156.826 4.16217V1.26868H160.584V4.16217C164.325 4.29096 167.841 5.13239 170.315 7.09859C172.479 8.8158 173.832 11.383 173.832 15.0493C173.832 18.7069 172.461 21.257 170.298 22.9742C167.807 24.9489 164.282 25.7818 160.584 25.8934V28.9071H160.231H156.86V28.2889ZM160.567 7.7082V22.4161C161.222 22.4247 161.687 22.4161 161.773 22.4075C163.954 22.1928 165.997 21.6433 167.488 20.5014C168.953 19.3766 169.884 17.6422 169.884 15.0493C169.884 12.731 169.117 11.0911 167.902 9.96633C166.411 8.59256 164.221 7.94002 161.885 7.72537C161.834 7.71679 161.291 7.7082 160.567 7.7082ZM49.5498 22.0726C49.2739 21.3256 49.0843 20.5958 48.9895 19.8403C48.8947 19.0847 48.8861 18.3119 48.955 17.4791C49.0412 16.4745 49.3256 15.3927 49.7911 14.371C50.2307 13.4093 50.8254 12.4992 51.5667 11.7436C53.3336 9.94916 55.5316 9.20217 57.6002 9.27086C58.5483 9.3052 59.4706 9.50268 60.3153 9.84612C61.16 10.1981 61.9271 10.6876 62.5649 11.3143C63.7458 12.4649 64.4784 14.0447 64.4181 15.9164C64.4181 16.0538 64.4009 16.1912 64.3922 16.32C64.375 16.4488 64.3578 16.5862 64.3319 16.7235L64.2802 17.0326L60.4963 16.7922L60.6256 16.3629C60.798 15.822 60.7549 15.0922 60.367 14.4396C60.0567 13.9245 59.5137 13.4608 58.6604 13.1861C57.8329 12.9199 56.9969 12.9199 56.2039 13.1432C55.4023 13.375 54.661 13.8386 54.049 14.4998C53.2992 15.324 52.8423 16.3887 52.6786 17.5049C52.4976 18.6726 52.6355 19.8918 53.0837 20.9479C53.3681 21.6176 53.7388 22.2186 54.1697 22.7423C55.2471 24.0388 56.7555 24.8803 58.4018 25.2323C60.0567 25.5843 61.8495 25.4384 63.5217 24.7429C64.306 24.4166 65.0645 23.9616 65.7541 23.3949C66.8746 22.4676 67.7365 21.2741 68.3227 19.9519C68.9346 18.5609 69.2449 17.0326 69.2363 15.5215C69.2363 14.8003 69.1932 14.5513 69.1329 14.122C69.1156 14.0018 69.0984 13.8644 69.0553 13.5896C69.0381 13.4694 69.0036 13.3406 68.9777 13.2033L68.9346 13.0058C68.5726 11.3573 67.6676 9.59713 66.2454 8.09457C65.0042 6.78091 63.3665 5.66473 61.3324 4.97784C60.2808 4.62582 59.1689 4.41975 58.0743 4.35106C56.9107 4.28238 55.7815 4.35965 54.7558 4.56572L54.1352 4.72026C53.6267 4.84047 53.1268 5.0036 52.6441 5.19249C52.1528 5.38997 51.6701 5.61321 51.2047 5.8622C49.4894 6.78949 47.981 8.11174 46.7916 9.74309C45.6366 11.3229 44.7833 13.2033 44.3351 15.2897C44.0765 16.4831 43.9644 17.7109 43.9903 18.913C44.0161 20.1236 44.1885 21.3171 44.4988 22.459C44.5678 22.708 44.7057 23.1545 44.8608 23.6267C44.9815 23.9787 45.1194 24.3565 45.2487 24.6656L45.3866 24.9833L41.9992 26.4429L41.8527 26.1252C41.7234 25.8247 41.62 25.5671 41.5165 25.2924L41.37 24.906C40.9563 23.8414 40.6546 22.562 40.4736 21.2484C40.284 19.8746 40.2323 18.4665 40.3185 17.2387C40.396 16.1826 40.5512 15.1094 40.8097 14.0447C41.0511 13.0315 41.37 12.0356 41.7837 11.0911C41.9044 10.8078 42.0337 10.533 42.163 10.2583C42.2923 9.99209 42.4388 9.71733 42.5853 9.45116C42.775 9.16782 42.9301 8.82439 43.1283 8.54105C43.5852 7.81982 44.0851 7.13294 44.6281 6.48898C45.1711 5.85362 45.7659 5.2526 46.4037 4.6945C46.8864 4.27379 47.3777 3.88742 47.8776 3.53539C48.3861 3.18336 48.9119 2.8571 49.4636 2.55658C49.7394 2.40204 50.0583 2.25607 50.3686 2.11011C50.722 1.94698 51.0668 1.80101 51.3857 1.68081C51.7304 1.55202 52.1528 1.39747 52.5838 1.26868C52.9889 1.13989 53.394 1.03686 53.7301 0.959582C54.5576 0.779275 55.2816 0.68483 56.0229 0.633314C56.7469 0.590384 57.4709 0.590383 58.3156 0.598969L59.0483 0.667657C59.8843 0.719173 60.7635 0.899481 61.6168 1.13989C62.6167 1.42323 63.5993 1.8096 64.4871 2.21314C65.8489 2.83992 67.1159 3.72428 68.2106 4.74602C69.3742 5.82786 70.3568 7.08142 71.0636 8.34357C71.2446 8.66983 71.4084 8.97035 71.5549 9.27944C71.71 9.59713 71.848 9.91481 71.9772 10.2668L72.3134 11.2628C72.3996 11.5032 72.4686 11.7265 72.5203 11.9411C72.572 12.1558 72.6237 12.3876 72.6668 12.6366C72.6926 12.7997 72.7271 12.9543 72.753 13.1002C72.8219 13.478 72.8909 13.8215 72.9168 14.3795C72.9771 15.4442 72.9685 16.4144 72.8478 17.3761C72.7271 18.3463 72.5116 19.3079 72.141 20.364C71.9945 20.7761 71.8221 21.2054 71.6325 21.6262C71.4428 22.0383 71.2274 22.4504 71.0033 22.8282C70.5206 23.6525 69.9 24.4681 69.2104 25.1979C68.5381 25.9106 67.7796 26.5545 67.0039 27.0525C66.6505 27.2758 66.1075 27.602 65.7369 27.7823C65.5386 27.894 65.2369 28.0313 64.9352 28.1601C64.6336 28.2889 64.3147 28.4005 64.0992 28.4692C63.3665 28.6925 62.8063 28.847 62.2288 28.9415C61.6513 29.0445 61.0652 29.0874 60.2636 29.096C59.1086 29.1046 57.8846 28.9414 56.721 28.598C55.6264 28.2803 54.5834 27.7995 53.6784 27.1556C53.6353 27.1212 53.575 27.0955 53.5233 27.0611C53.4371 27.0096 53.3423 26.9581 53.2561 26.8894C52.8941 26.6061 52.5924 26.3571 52.3079 26.0995C52.0235 25.8419 51.7391 25.5586 51.4288 25.1894C51.1702 24.8888 50.8771 24.5025 50.6186 24.1075C50.3686 23.7383 50.1359 23.3434 49.9721 22.9999C49.8859 22.8282 49.817 22.6737 49.7566 22.5191C49.6704 22.3903 49.6101 22.2358 49.5498 22.0726ZM248.846 21.9267C247.967 19.9691 247.088 18.0029 246.217 16.0367C244.924 13.1174 243.623 10.1896 242.33 7.36476C241.02 10.2325 239.709 13.1861 238.408 16.1225C237.417 18.3549 236.425 20.5787 235.426 22.8024C238.744 24.1676 241.149 23.4979 242.821 22.7681C244.847 21.9267 246.976 21.7721 248.846 21.9267ZM232.4 28.8728L228.341 28.8813C232.667 19.6256 236.994 10.3699 241.33 1.12272H243.243C247.613 10.387 252.001 19.6428 256.379 28.8985L252.026 28.8728L251.932 28.6753C251.544 27.8596 251.165 27.0354 250.785 26.2197C250.147 25.9363 249.234 25.6444 247.967 25.5328C246.769 25.4298 245.407 25.6101 244.372 26.0565C241.933 27.1212 238.632 28.4263 233.831 26.2712C233.46 27.0697 233.09 27.8682 232.711 28.6753L232.616 28.8813L232.4 28.8728Z" fill="white"/>
<path d="M113.733 48.0172C112.613 48.0172 111.6 47.7718 110.693 47.2812C109.797 46.7798 109.093 46.0972 108.581 45.2332C108.069 44.3585 107.813 43.3772 107.813 42.2892C107.813 41.2012 108.069 40.2252 108.581 39.3612C109.093 38.4865 109.803 37.8038 110.709 37.3132C111.616 36.8118 112.629 36.5612 113.749 36.5612C114.624 36.5612 115.424 36.7105 116.149 37.0092C116.875 37.2972 117.493 37.7292 118.005 38.3052L116.965 39.3132C116.123 38.4278 115.072 37.9852 113.813 37.9852C112.981 37.9852 112.229 38.1718 111.557 38.5452C110.885 38.9185 110.357 39.4358 109.973 40.0972C109.6 40.7478 109.413 41.4785 109.413 42.2892C109.413 43.0998 109.6 43.8358 109.973 44.4972C110.357 45.1478 110.885 45.6598 111.557 46.0332C112.229 46.4065 112.981 46.5932 113.813 46.5932C115.061 46.5932 116.112 46.1452 116.965 45.2492L118.005 46.2572C117.493 46.8332 116.869 47.2705 116.133 47.5692C115.408 47.8678 114.608 48.0172 113.733 48.0172ZM127.698 46.4972V47.8892H119.57V36.6892H127.474V38.0812H121.17V41.5212H126.786V42.8812H121.17V46.4972H127.698ZM139.954 47.8892L139.938 39.7292L135.89 46.5292H135.154L131.106 39.7772V47.8892H129.57V36.6892H130.882L135.554 44.5612L140.162 36.6892H141.474L141.49 47.8892H139.954ZM152.464 46.4972V47.8892H144.336V36.6892H152.24V38.0812H145.936V41.5212H151.552V42.8812H145.936V46.4972H152.464ZM154.337 36.6892H155.921V45.3292L162.545 36.6892H164.017V47.8892H162.449V39.2652L155.809 47.8892H154.337V36.6892ZM159.153 35.9052C158.278 35.9052 157.601 35.7185 157.121 35.3452C156.652 34.9612 156.412 34.4172 156.401 33.7132H157.537C157.548 34.1292 157.692 34.4545 157.969 34.6892C158.257 34.9132 158.652 35.0252 159.153 35.0252C159.633 35.0252 160.017 34.9132 160.305 34.6892C160.604 34.4545 160.758 34.1292 160.769 33.7132H161.889C161.878 34.4065 161.633 34.9452 161.153 35.3292C160.684 35.7132 160.017 35.9052 159.153 35.9052ZM176.181 36.6892V47.8892H174.581V42.8972H168.149V47.8892H166.549V36.6892H168.149V41.5052H174.581V36.6892H176.181ZM183.946 40.5932C185.279 40.5932 186.298 40.8918 187.002 41.4892C187.717 42.0865 188.074 42.9665 188.074 44.1292C188.074 45.3558 187.69 46.2892 186.922 46.9292C186.165 47.5692 185.077 47.8892 183.658 47.8892H179.034V36.6892H180.618V40.5932H183.946ZM183.594 46.6252C184.522 46.6252 185.231 46.4172 185.722 46.0012C186.223 45.5745 186.474 44.9612 186.474 44.1612C186.474 42.6252 185.514 41.8572 183.594 41.8572H180.618V46.6252H183.594ZM189.85 36.6892H191.434V47.8892H189.85V36.6892ZM202.413 46.4972V47.8892H194.285V36.6892H202.189V38.0812H195.885V41.5212H201.501V42.8812H195.885V46.4972H202.413ZM219.295 38.0812H215.455V47.8892H213.887V38.0812H210.063V36.6892H219.295V38.0812ZM231.208 36.6892L226.232 45.9212C225.837 46.6572 225.373 47.2065 224.84 47.5692C224.306 47.9318 223.725 48.1132 223.096 48.1132C222.605 48.1132 222.104 48.0012 221.592 47.7772L222.008 46.4972C222.402 46.6358 222.754 46.7052 223.064 46.7052C223.768 46.7052 224.349 46.3318 224.808 45.5852L225.064 45.1852L220.552 36.6892H222.264L225.896 43.7932L229.624 36.6892H231.208ZM236.596 36.6892C238.046 36.6892 239.188 37.0358 240.02 37.7292C240.852 38.4225 241.268 39.3772 241.268 40.5932C241.268 41.8092 240.852 42.7638 240.02 43.4572C239.188 44.1505 238.046 44.4972 236.596 44.4972H233.828V47.8892H232.228V36.6892H236.596ZM236.548 43.1052C237.561 43.1052 238.334 42.8918 238.868 42.4652C239.401 42.0278 239.668 41.4038 239.668 40.5932C239.668 39.7825 239.401 39.1638 238.868 38.7372C238.334 38.2998 237.561 38.0812 236.548 38.0812H233.828V43.1052H236.548ZM247.765 40.5932C249.099 40.5932 250.117 40.8918 250.821 41.4892C251.536 42.0865 251.893 42.9665 251.893 44.1292C251.893 45.3558 251.509 46.2892 250.741 46.9292C249.984 47.5692 248.896 47.8892 247.477 47.8892H242.853V36.6892H244.437V40.5932H247.765ZM247.413 46.6252C248.341 46.6252 249.051 46.4172 249.541 46.0012C250.043 45.5745 250.293 44.9612 250.293 44.1612C250.293 42.6252 249.333 41.8572 247.413 41.8572H244.437V46.6252H247.413ZM253.669 36.6892H255.253V47.8892H253.669V36.6892Z" fill="white"/>
</g>
<defs>
<clipPath id="clip0_647_1125">
<rect width="257" height="51.8892" fill="white"/>
</clipPath>
</defs>
</svg>
