<svg width="25" height="25" viewBox="0 0 25 25" fill="none" xmlns="http://www.w3.org/2000/svg">
<path d="M8.59375 14.4531C8.59375 13.1397 8.98322 11.8558 9.7129 10.7638C10.4426 9.67175 11.4797 8.8206 12.6931 8.31799C13.9065 7.81538 15.2417 7.68387 16.5299 7.9401C17.8181 8.19633 19.0013 8.82879 19.93 9.7575C20.8587 10.6862 21.4912 11.8695 21.7474 13.1576C22.0036 14.4458 21.8721 15.781 21.3695 16.9944C20.8669 18.2078 20.0158 19.2449 18.9237 19.9746C17.8317 20.7043 16.5478 21.0938 15.2344 21.0938H7.42188C6.28227 21.0938 5.18935 20.641 4.38353 19.8352C3.57771 19.0294 3.125 17.9365 3.125 16.7969C3.125 15.6573 3.57771 14.5643 4.38353 13.7585C5.18935 12.9527 6.28227 12.5 7.42188 12.5C7.89736 12.4976 8.36973 12.5768 8.81836 12.7344" stroke="#BDBDBD" stroke-width="1.4" stroke-linecap="round" stroke-linejoin="round"/>
<path d="M7.7832 5.53711L7.37305 3.23242" stroke="#BDBDBD" stroke-width="1.4" stroke-linecap="round" stroke-linejoin="round"/>
<path d="M4.75586 7.4707L2.83203 6.12305" stroke="#BDBDBD" stroke-width="1.4" stroke-linecap="round" stroke-linejoin="round"/>
<path d="M3.97461 10.9668L1.66992 11.377" stroke="#BDBDBD" stroke-width="1.4" stroke-linecap="round" stroke-linejoin="round"/>
<path d="M11.2793 6.31836L12.627 4.39453" stroke="#BDBDBD" stroke-width="1.4" stroke-linecap="round" stroke-linejoin="round"/>
<path d="M5.03933 13.2226C4.49171 12.5778 4.12447 11.7995 3.97488 10.9668C3.77649 9.84039 3.99676 8.68033 4.59421 7.70506C5.19167 6.72978 6.12508 6.00659 7.21867 5.67167C8.31226 5.33675 9.49057 5.41321 10.5317 5.88666C11.5728 6.3601 12.405 7.19786 12.8714 8.24217" stroke="#BDBDBD" stroke-width="1.4" stroke-linecap="round" stroke-linejoin="round"/>
</svg>
