<svg width="24" height="20" viewBox="0 0 24 20" fill="none" xmlns="http://www.w3.org/2000/svg">
<path d="M21.4157 17.9855C21.8254 16.7203 23.7508 4.10531 23.9872 1.61978C24.0595 0.866473 23.8218 0.366466 23.3595 0.143507C22.7986 -0.126945 21.9673 0.00762268 21.0033 0.357232C19.6807 0.836131 2.77907 8.04468 1.80193 8.46289C0.877326 8.85868 0 9.28876 0 9.9141C0 10.3534 0.260046 10.6001 0.974515 10.8561C1.71788 11.1226 3.59073 11.6925 4.69658 11.9986C5.76172 12.2941 6.97395 12.0381 7.65296 11.6133C8.37268 11.1635 16.6863 5.5763 17.2825 5.08685C17.8788 4.5974 18.3542 5.22406 17.867 5.71483C17.3797 6.20428 11.6745 11.7677 10.9206 12.5382C10.0065 13.4735 10.6553 14.4419 11.2686 14.8311C11.9687 15.2743 17.0015 18.6649 17.7606 19.2098C18.5197 19.7533 19.2867 20 19.992 20C20.696 19.9987 21.065 19.066 21.4157 17.9855Z" fill="white"/>
</svg>
